<?xml version="1.0" encoding="utf-8"?>
<!-- Svg Vector Icons : http://www.onlinewebfonts.com/icon -->
<!DOCTYPE svg PUBLIC "-//W3C//DTD SVG 1.1//EN" "http://www.w3.org/Graphics/SVG/1.1/DTD/svg11.dtd">
<svg version="1.1" xmlns="http://www.w3.org/2000/svg" xmlns:xlink="http://www.w3.org/1999/xlink" x="0px" y="0px" viewBox="0 0 256 256" enable-background="new 0 0 256 256" xml:space="preserve">
<metadata> Svg Vector Icons : http://www.onlinewebfonts.com/icon </metadata>
<g><g><g><path fill="#000000" d="M121.4,10C96.5,11.6,73.3,20.7,54,36c-23.4,18.7-38.8,46-43.2,76.7c-1.1,7.7-1.1,23,0,30.6c4.9,34.7,23.4,64.1,52.4,83.4c5.9,4,19.1,10.6,25.7,12.8c22.7,7.8,47.6,8.7,70,2.6c41.9-11.5,73.7-44.2,84.1-86.3c2.5-10,3.1-15.4,3.1-27.7c0-12.3-0.6-17.7-3.1-27.7c-2.1-8.7-4.8-16-8.7-23.9c-5.8-11.9-11.7-20.4-20.6-29.7c-18.5-19.4-42.3-31.7-68.5-35.5C138.7,10.2,126.6,9.7,121.4,10z M137.9,19.2c37.8,3.4,71.3,26.4,88.1,60.5c5.3,10.8,8.4,20.4,10.2,32.1c1.2,7.3,1.2,25.3,0,32.5c-3.6,23-14.4,44.3-30.5,60.5c-38.9,39.1-99.4,43.4-143.7,10.3c-5.8-4.3-16.8-15.3-21.1-21.1c-11.4-15.2-18.4-32-21.2-50.7c-1.3-8.4-1.2-23.8,0.2-32.1c2-11.9,5.3-22,10.5-32.2c14-28,40.1-49.1,70.3-56.8C113.1,19.1,125.6,18.1,137.9,19.2z"/><path fill="#000000" d="M125.3,65.5l-1.3,1.1l-0.2,28.5l-0.2,28.4l-28.4,0.2L66.8,124l-1.1,1.1c-1.5,1.5-1.5,4.4,0,5.8l1.1,1.1l28.4,0.2l28.4,0.2l0.2,28.3c0.2,26.8,0.3,28.4,1.1,29.3c1.1,1.3,3.3,1.7,5,1c2.8-1.2,2.8-0.9,2.8-31.3v-27.6h28.2h28.2l1.3-1.2c0.9-0.9,1.2-1.7,1.2-3c0-1.3-0.3-2.1-1.2-3l-1.3-1.2h-28.2h-28.2V96.2c0-23.9-0.1-27.8-0.7-29.2C130.7,64.3,127.6,63.6,125.3,65.5z"/></g></g></g>
</svg>